<?xml version="1.0"?>
<svg xmlns="http://www.w3.org/2000/svg" xmlns:xlink="http://www.w3.org/1999/xlink" width="233.41025032in" height="69.13085254in" viewBox="0 0 233.41025032 69.13085254">
    <g layername="0" is_locked="false" is_construction="false" fill="none" stroke="white" stroke-width="1.5">
        <path d="M152.41025032,22.92209143 C155.41025032,23.92209143 165.41025032,14.42209143 167.07691699,8.00542477 C168.74358365,1.5887581 162.07691699,-1.74457523 154.57691699,0.92209143 C147.07691699,3.5887581 138.74358365,12.25542477 140.41025032,18.92209143 C142.07691699,25.5887581 153.74358365,30.25542477 159.57691699,35.92209143 C165.41025032,41.5887581 165.41025032,48.25542477 160.41025032,54.0887581 C155.41025032,59.92209143 145.41025032,64.92209143 130.41025032,54.92209143 "/>
        <path d="M25.41025032,34.92209143 C5.41025032,14.92209143 15.41025032,4.92209143 23.74358365,1.5887581 C32.07691699,-1.74457523 38.74358365,1.5887581 42.07691699,8.25542477 C45.41025032,14.92209143 45.41025032,24.92209143 40.41025032,36.5887581 C35.41025032,48.25542477 25.41025032,61.5887581 17.07691699,66.5887581 C8.74358365,71.5887581 2.07691699,68.25542477 0.41025032,64.92209143 C-1.25641635,61.5887581 2.07691699,58.25542477 11.24358365,53.25542477 C20.41025032,48.25542477 35.41025032,41.5887581 42.91025032,38.25542477 C50.41025032,34.92209143 50.41025032,34.92209143 48.74358365,36.5887581 C47.07691699,38.25542477 43.74358365,41.5887581 43.74358365,44.92209143 C43.74358365,48.25542477 47.07691699,51.5887581 50.41025032,51.5887581 C53.74358365,51.5887581 57.07691699,48.25542477 57.07691699,44.92209143 C57.07691699,41.5887581 53.74358365,38.25542477 50.41025032,38.25542477 C47.07691699,38.25542477 43.74358365,41.5887581 48.74358365,41.5887581 C53.74358365,41.5887581 67.07691699,38.25542477 73.74358365,33.25542477 C80.41025032,28.25542477 80.41025032,21.5887581 78.74358365,18.25542477 C77.07691699,14.92209143 73.74358365,14.92209143 70.41025032,21.5887581 C67.07691699,28.25542477 63.74358365,41.5887581 62.07691699,48.25542477 C60.41025032,54.92209143 60.41025032,54.92209143 62.07691699,50.75542477 C63.74358365,46.5887581 67.07691699,38.25542477 70.41025032,39.92209143 C73.74358365,41.5887581 77.07691699,53.25542477 80.41025032,54.0887581 C83.74358365,54.92209143 87.07691699,44.92209143 88.74358365,39.92209143 C90.41025032,34.92209143 90.41025032,34.92209143 89.57691699,38.25542477 C88.74358365,41.5887581 87.07691699,48.25542477 86.24358365,51.5887581 C85.41025032,54.92209143 85.41025032,54.92209143 87.07691699,50.0887581 C88.74358365,45.25542477 92.07691699,35.5887581 97.49358365,41.00542477 C102.91025032,46.42209143 110.41025032,66.92209143 125.41025032,44.92209143 "/>
        <path d="M175.41025032,15.92209143 C165.41025032,51.92209143 165.41025032,51.92209143 165.07691699,53.0887581 C164.74358365,54.25542477 164.07691699,56.5887581 165.91025032,53.42209143 C167.74358365,50.25542477 172.07691699,41.5887581 175.07691699,41.0887581 C178.07691699,40.5887581 179.74358365,48.25542477 181.24358365,51.92209143 C182.74358365,55.5887581 184.07691699,55.25542477 186.24358365,53.42209143 C188.41025032,51.5887581 191.41025032,48.25542477 192.07691699,45.5887581 C192.74358365,42.92209143 191.07691699,40.92209143 189.41025032,40.92209143 C187.74358365,40.92209143 186.07691699,42.92209143 186.24358365,45.5887581 C186.41025032,48.25542477 188.41025032,51.5887581 190.74358365,53.25542477 C193.07691699,54.92209143 195.74358365,54.92209143 198.24358365,53.25542477 C200.74358365,51.5887581 203.07691699,48.25542477 203.41025032,45.5887581 C203.74358365,42.92209143 202.07691699,40.92209143 200.41025032,40.92209143 C198.74358365,40.92209143 197.07691699,42.92209143 197.24358365,45.5887581 C197.41025032,48.25542477 199.41025032,51.5887581 201.07691699,53.25542477 C202.74358365,54.92209143 204.07691699,54.92209143 206.74358365,48.75542477 C209.41025032,42.5887581 213.41025032,30.25542477 214.91025032,23.5887581 C216.41025032,16.92209143 215.41025032,15.92209143 213.74358365,22.0887581 C212.07691699,28.25542477 209.74358365,41.5887581 208.91025032,48.5887581 C208.07691699,55.5887581 208.74358365,56.25542477 210.07691699,52.75542477 C211.41025032,49.25542477 213.41025032,41.5887581 214.91025032,41.5887581 C216.41025032,41.5887581 217.41025032,49.25542477 218.24358365,52.5887581 C219.07691699,55.92209143 219.74358365,54.92209143 220.66025032,52.42209143 C221.57691699,49.92209143 222.74358365,45.92209143 223.16025032,43.75542477 C223.57691699,41.5887581 223.24358365,41.25542477 222.91025032,41.25542477 C222.57691699,41.25542477 222.24358365,41.5887581 221.99358365,43.92209143 C221.74358365,46.25542477 221.57691699,50.5887581 222.99358365,52.5887581 C224.41025032,54.5887581 227.41025032,54.25542477 229.24358365,51.75542477 C231.07691699,49.25542477 231.74358365,44.5887581 231.91025032,42.42209143 C232.07691699,40.25542477 231.74358365,40.5887581 230.74358365,45.5887581 C229.74358365,50.5887581 228.07691699,60.25542477 215.41025032,65.0887581 C202.74358365,69.92209143 179.07691699,69.92209143 168.74358365,67.17209143 C158.41025032,64.42209143 161.41025032,58.92209143 233.41025032,57.92209143 "/>
    </g>
</svg>
